<svg width="465" height="80" viewBox="0 0 465 80" fill="none" xmlns="http://www.w3.org/2000/svg">
  <g clip-path="url(#clip0)">
    <path d="M96.2344 63.2773V15.0002H106.441V36.2865H107.078L124.451 15.0002H136.685L118.77 36.6165L136.898 63.2773H124.687L111.462 43.4291L106.441 49.558V63.2773H96.2344Z" fill="#141413"/>
    <path d="M142.001 15.0002H154.589L167.884 47.4364H168.45L181.745 15.0002H194.333V63.2773H184.432V31.8548H184.031L171.538 63.0415H164.796L152.302 31.737H151.902V63.2773H142.001V15.0002Z" fill="#141413"/>
    <path d="M202.742 63.2773V15.0002H234.707V23.4157H212.949V34.9193H232.586V43.3349H212.949V63.2773H202.742Z" fill="#141413"/>
    <path d="M251.143 15.0002L260.879 31.4541H261.256L271.039 15.0002H282.566L267.833 39.1388L282.896 63.2773H271.156L261.256 46.8H260.879L250.978 63.2773H239.286L254.396 39.1388L239.569 15.0002H251.143Z" fill="#141413"/>
    <path d="M302.442 64.3396V16.0625H328.184V17.5712H303.951V39.4467H326.769V40.9554H303.951V62.8309H328.844V64.3396H302.442Z" fill="#141413"/>
    <path d="M353.843 64.3396H341.208V16.0625H355.068C359.516 16.0625 363.32 17.0211 366.477 18.9384C369.653 20.8399 372.079 23.5744 373.763 27.1417C375.46 30.7091 376.299 34.9993 376.283 40.0125C376.269 45.1515 375.372 49.5358 373.596 53.1661C371.838 56.7806 369.283 59.5466 365.935 61.4637C362.603 63.381 358.573 64.3396 353.843 64.3396ZM342.716 62.8309H353.843C358.306 62.8309 362.101 61.9273 365.229 60.1201C368.357 58.297 370.728 55.6806 372.348 52.2704C373.981 48.8601 374.79 44.7742 374.775 40.0125C374.759 35.3136 373.973 31.2906 372.419 27.9432C370.879 24.5959 368.646 22.0343 365.723 20.2585C362.799 18.4669 359.249 17.5712 355.068 17.5712H342.716V62.8309Z" fill="#141413"/>
    <path d="M422.887 31.149C422.603 29.4989 422.022 27.8409 421.143 26.1751C420.28 24.4936 419.122 22.9535 417.678 21.5549C416.247 20.1562 414.55 19.0326 412.585 18.1839C410.623 17.3353 408.398 16.911 405.915 16.911C402.222 16.911 398.985 17.8853 396.202 19.834C393.438 21.767 391.285 24.4857 389.745 27.9902C388.205 31.479 387.435 35.5493 387.435 40.201C387.435 44.7897 388.197 48.8366 389.721 52.341C391.245 55.8453 393.406 58.58 396.202 60.5443C399.001 62.5087 402.301 63.4908 406.104 63.4908C409.468 63.4908 412.452 62.6972 415.062 61.1102C417.67 59.5072 419.704 57.2128 421.167 54.2267C422.627 51.2252 423.328 47.6186 423.265 43.4069L423.926 43.9727H406.576V42.464H424.773V43.9727C424.773 48.373 423.971 52.1445 422.37 55.2875C420.766 58.4148 418.557 60.8194 415.745 62.5007C412.933 64.1666 409.717 64.9996 406.104 64.9996C402.017 64.9996 398.459 63.9624 395.424 61.8879C392.408 59.7979 390.066 56.8904 388.401 53.1659C386.75 49.4414 385.927 45.1198 385.927 40.201C385.927 36.4922 386.396 33.1213 387.339 30.0882C388.298 27.0394 389.657 24.4229 391.418 22.2385C393.194 20.0383 395.307 18.3489 397.758 17.1703C400.209 15.9917 402.928 15.4023 405.915 15.4023C408.743 15.4023 411.242 15.8895 413.411 16.8639C415.58 17.8382 417.426 19.119 418.95 20.7062C420.49 22.2777 421.709 23.9828 422.603 25.8215C423.517 27.6445 424.114 29.4203 424.396 31.149H422.887Z" fill="#141413"/>
    <path d="M437.667 64.3396V16.0625H463.409V17.5712H439.178V39.4467H461.994V40.9554H439.178V62.8309H464.07V64.3396H437.667Z" fill="#141413"/>
  </g>
  <g clip-path="url(#clip1)">
    <path d="M60.2791 0H19.7209C8.82936 0 0 8.82936 0 19.7209V60.2791C0 71.1706 8.82936 80 19.7209 80H60.2791C71.1706 80 80 71.1706 80 60.2791V19.7209C80 8.82936 71.1706 0 60.2791 0Z" fill="#141413"/>
    <path d="M37.3764 20.6511H49.8173C50.589 20.6511 51.1472 20.6515 51.5546 20.7118C51.9583 20.7716 52.1682 20.8844 52.2902 21.0701C52.4126 21.2558 52.4327 21.4927 52.3282 21.8873C52.2225 22.2854 52.0022 22.7979 51.6971 23.5069L36.3172 59.2279C36.1747 59.5587 36.0735 59.7934 35.9742 59.9694C35.8771 60.1414 35.7897 60.2418 35.6835 60.3118C35.5774 60.3817 35.4507 60.4223 35.2544 60.4431C35.0535 60.4651 34.7979 60.4651 34.4375 60.4651H21.9967C21.2248 60.4651 20.6669 60.4647 20.2595 60.4044C19.8555 60.3445 19.6459 60.2318 19.5236 60.0461C19.4014 59.8604 19.381 59.6234 19.4858 59.229C19.5915 58.8308 19.8118 58.3185 20.117 57.6093L35.4967 21.8884C35.6392 21.5574 35.7405 21.3227 35.8397 21.1468C35.9369 20.9748 36.0243 20.8743 36.1305 20.8045C36.2366 20.7346 36.3633 20.6941 36.5596 20.6729C36.7604 20.6513 37.0161 20.6511 37.3764 20.6511Z" fill="#FFFFFF"/>
    <path d="M18.6046 36.8372C23.1257 36.8372 26.7907 33.1722 26.7907 28.6511C26.7907 24.1301 23.1257 20.4651 18.6046 20.4651C14.0836 20.4651 10.4186 24.1301 10.4186 28.6511C10.4186 33.1722 14.0836 36.8372 18.6046 36.8372Z" fill="#FFFFFF"/>
    <path d="M68.093 35.7208C68.093 35.3098 67.7596 34.9755 67.3488 34.9876C64.2798 35.0786 61.2506 35.7316 58.4104 36.9168C55.3402 38.1977 52.551 40.0752 50.2016 42.442C47.8519 44.8088 45.9882 47.6186 44.7167 50.711C43.5394 53.574 42.8911 56.6274 42.8015 59.7208C42.7895 60.1316 43.1238 60.465 43.5349 60.465H54.3959C54.807 60.465 55.1378 60.1316 55.1613 59.7212C55.2439 58.2618 55.5695 56.8253 56.1261 55.4717C56.7773 53.8886 57.7313 52.4503 58.9339 51.2386C60.1369 50.027 61.5646 49.0659 63.1363 48.4101C64.4781 47.8502 65.9025 47.5223 67.3492 47.4385C67.7596 47.4147 68.093 47.0837 68.093 46.6727V35.7208Z" fill="#FFFFFF"/>
  </g>
  <defs>
    <clipPath id="clip0">
      <rect width="367.836" height="50" fill="white" transform="translate(96.2344 15)"/>
    </clipPath>
    <clipPath id="clip1">
      <rect width="80" height="80" fill="white"/>
    </clipPath>
  </defs>
</svg>
