<svg width="256" height="256" viewBox="0 0 256 256" fill="none" xmlns="http://www.w3.org/2000/svg">
  <g transform="translate(20.5 20.5)">
    <rect width="215" height="215" rx="53" fill="#141413"/>
    <path d="M100.449 55.5H133.884C135.958 55.5 137.458 55.501 138.553 55.6631C139.638 55.8238 140.202 56.1268 140.53 56.626C140.859 57.1251 140.913 57.7618 140.632 58.8223C140.348 59.892 139.756 61.2694 138.936 63.1748L97.6025 159.175C97.2196 160.064 96.9475 160.695 96.6807 161.168C96.4197 161.63 96.1847 161.9 95.8994 162.088C95.6142 162.276 95.2737 162.385 94.7461 162.441C94.2063 162.5 93.5193 162.5 92.5508 162.5H59.1162C57.0417 162.5 55.5422 162.499 54.4473 162.337C53.3617 162.176 52.7983 161.873 52.4697 161.374C52.1414 160.875 52.0865 160.238 52.3682 159.178C52.6523 158.108 53.2441 156.731 54.0645 154.825L95.3975 58.8252C95.7804 57.9357 96.0525 57.3048 96.3193 56.832C96.5803 56.3698 96.8153 56.0999 97.1006 55.9121C97.3858 55.7244 97.7263 55.6155 98.2539 55.5586C98.7937 55.5004 99.4807 55.5 100.449 55.5Z" fill="white" stroke="black"/>
    <circle cx="50" cy="77" r="22" fill="white"/>
    <g filter="url(#filter0_d)">
      <path d="M183 96C183 94.8954 182.104 93.9969 181 94.0296C172.752 94.2741 164.611 96.029 156.978 99.2143C148.727 102.657 141.231 107.702 134.917 114.063C128.602 120.424 123.594 127.975 120.176 136.286C117.012 143.981 115.27 152.187 115.029 160.5C114.997 161.604 115.895 162.5 117 162.5L146.189 162.5C147.294 162.5 148.183 161.604 148.246 160.501C148.468 156.579 149.343 152.718 150.839 149.081C152.589 144.826 155.153 140.96 158.385 137.704C161.618 134.448 165.455 131.865 169.679 130.103C173.285 128.598 177.113 127.716 181.001 127.491C182.104 127.427 183 126.538 183 125.433V96Z" fill="white"/>
      <path d="M183 96C183 94.8954 182.104 93.9969 181 94.0296C172.752 94.2741 164.611 96.029 156.978 99.2143C148.727 102.657 141.231 107.702 134.917 114.063C128.602 120.424 123.594 127.975 120.176 136.286C117.012 143.981 115.27 152.187 115.029 160.5C114.997 161.604 115.895 162.5 117 162.5L146.189 162.5C147.294 162.5 148.183 161.604 148.246 160.501C148.468 156.579 149.343 152.718 150.839 149.081C152.589 144.826 155.153 140.96 158.385 137.704C161.618 134.448 165.455 131.865 169.679 130.103C173.285 128.598 177.113 127.716 181.001 127.491C182.104 127.427 183 126.538 183 125.433V96Z" stroke="black"/>
    </g>
  </g>
  <defs>
    <filter id="filter0_d" x="111.028" y="94.0288" width="75.9719" height="76.4712" filterUnits="userSpaceOnUse" color-interpolation-filters="sRGB">
      <feFlood flood-opacity="0" result="BackgroundImageFix"/>
      <feColorMatrix in="SourceAlpha" type="matrix" values="0 0 0 0 0 0 0 0 0 0 0 0 0 0 0 0 0 0 127 0" result="hardAlpha"/>
      <feOffset dy="4"/>
      <feGaussianBlur stdDeviation="2"/>
      <feComposite in2="hardAlpha" operator="out"/>
      <feColorMatrix type="matrix" values="0 0 0 0 0 0 0 0 0 0 0 0 0 0 0 0 0 0 0.25 0"/>
      <feBlend mode="normal" in2="BackgroundImageFix" result="effect1_dropShadow"/>
      <feBlend mode="normal" in="SourceGraphic" in2="effect1_dropShadow" result="shape"/>
    </filter>
  </defs>
</svg>
