<svg width="120" height="88" viewBox="10 24 100 76" fill="none" xmlns="http://www.w3.org/2000/svg">
  <defs>
    <linearGradient id="glassBody" x1="34" y1="24" x2="88" y2="98" gradientUnits="userSpaceOnUse">
      <stop offset="0" stop-color="#3F444D"/>
      <stop offset="0.28" stop-color="#16191F"/>
      <stop offset="0.62" stop-color="#090B10"/>
      <stop offset="1" stop-color="#2C323D"/>
    </linearGradient>
    <linearGradient id="edgeStroke" x1="18" y1="28" x2="104" y2="95" gradientUnits="userSpaceOnUse">
      <stop offset="0" stop-color="#F8FBFF"/>
      <stop offset="0.24" stop-color="#9AA6B8"/>
      <stop offset="0.54" stop-color="#111827"/>
      <stop offset="0.78" stop-color="#6BB6FF"/>
      <stop offset="1" stop-color="#2F6BFF"/>
    </linearGradient>
    <linearGradient id="innerHighlight" x1="28" y1="24" x2="102" y2="95" gradientUnits="userSpaceOnUse">
      <stop offset="0" stop-color="#FFFFFF" stop-opacity="0.95"/>
      <stop offset="0.42" stop-color="#CAD6E8" stop-opacity="0.24"/>
      <stop offset="0.78" stop-color="#2F6BFF" stop-opacity="0.75"/>
      <stop offset="1" stop-color="#87C7FF" stop-opacity="0.95"/>
    </linearGradient>
    <filter id="blueGlow" x="-25%" y="-25%" width="150%" height="150%" color-interpolation-filters="sRGB">
      <feDropShadow dx="0" dy="1" stdDeviation="0.7" flood-color="#FFFFFF" flood-opacity="0.55"/>
      <feDropShadow dx="0" dy="4" stdDeviation="3.2" flood-color="#2F6BFF" flood-opacity="0.45"/>
      <feDropShadow dx="0" dy="8" stdDeviation="8" flood-color="#02040A" flood-opacity="0.5"/>
    </filter>
  </defs>
  <g filter="url(#blueGlow)">
    <path d="M27.907 55.2558C34.6885 55.2558 40.1861 49.7582 40.1861 42.9767C40.1861 36.1952 34.6885 30.6976 27.907 30.6976C21.1255 30.6976 15.6279 36.1952 15.6279 42.9767C15.6279 49.7582 21.1255 55.2558 27.907 55.2558Z" fill="url(#glassBody)" stroke="url(#edgeStroke)" stroke-width="1.8"/>
    <path d="M56.0647 30.9767H74.726C75.8835 30.9767 76.7207 30.9773 77.3319 31.0677C77.9375 31.1574 78.2523 31.3265 78.4353 31.6051C78.619 31.8837 78.6491 32.2391 78.4923 32.831C78.3338 33.428 78.0033 34.1968 77.5457 35.2603L54.4758 88.8418C54.2621 89.338 54.1102 89.6902 53.9613 89.9542C53.8156 90.212 53.6845 90.3627 53.5252 90.4677C53.3661 90.5726 53.176 90.6334 52.8815 90.6647C52.5803 90.6976 52.1968 90.6976 51.6563 90.6976H32.9951C31.8372 90.6976 31.0003 90.6971 30.3892 90.6066C29.7833 90.5168 29.4688 90.3477 29.2854 90.0692C29.1022 89.7906 29.0715 89.4351 29.2288 88.8435C29.3873 88.2463 29.7176 87.4777 30.1755 86.414L53.2451 32.8326C53.4588 32.3362 53.6107 31.984 53.7596 31.7201C53.9053 31.4622 54.0364 31.3115 54.1957 31.2067C54.3549 31.1019 54.5449 31.0411 54.8394 31.0094C55.1407 30.9769 55.5241 30.9767 56.0647 30.9767Z" fill="url(#glassBody)" stroke="url(#edgeStroke)" stroke-width="1.8"/>
    <path d="M102.14 53.5813C102.14 52.9648 101.639 52.4633 101.023 52.4816C96.4197 52.618 91.8759 53.5975 87.6156 55.3753C83.0104 57.2967 78.8266 60.1129 75.3025 63.6631C71.7779 67.2133 68.9824 71.4281 67.0751 76.0666C65.3092 80.3612 64.3368 84.9412 64.2022 89.5813C64.1844 90.1975 64.6858 90.6976 65.3023 90.6976H81.5939C82.2106 90.6976 82.7068 90.1975 82.742 89.5819C82.8659 87.3929 83.3542 85.238 84.1892 83.2077C85.166 80.8331 86.597 78.6755 88.4009 76.858C90.2054 75.0406 92.347 73.5989 94.7046 72.6153C96.7172 71.7754 98.8538 71.2836 101.024 71.1578C101.639 71.1221 102.14 70.6257 102.14 70.0092V53.5813Z" fill="url(#glassBody)" stroke="url(#edgeStroke)" stroke-width="1.8"/>
    <path d="M19.2 42.7C20.1 36.9 24.1 33.1 29.5 32.4" stroke="url(#innerHighlight)" stroke-width="1.2" stroke-linecap="round" opacity="0.85"/>
    <path d="M57.2 33.2H74.5" stroke="url(#innerHighlight)" stroke-width="1.35" stroke-linecap="round" opacity="0.9"/>
    <path d="M32.2 88.4H51.9" stroke="#65AEFF" stroke-width="1.35" stroke-linecap="round" opacity="0.75"/>
    <path d="M67.9 88.6C70.2 71.8 82.4 58.8 100.3 55.2" stroke="url(#innerHighlight)" stroke-width="1.35" stroke-linecap="round" opacity="0.9"/>
  </g>
</svg>
